<?xml version="1.0" encoding="UTF-8"?>
<svg width="211px" height="141px" viewBox="0 0 211 141" version="1.1" xmlns="http://www.w3.org/2000/svg" xmlns:xlink="http://www.w3.org/1999/xlink">
    <!-- Generator: Sketch 55.2 (78181) - https://sketchapp.com -->
    <title>Group 2</title>
    <desc>Created with Sketch.</desc>
    <defs>
        <polygon id="path-1" points="0.0492090772 0.172381488 6.94272761 0.172381488 6.94272761 20.2147696 0.0492090772 20.2147696"></polygon>
        <polygon id="path-3" points="0.0492090772 0.172381488 6.94272761 0.172381488 6.94272761 20.2147696 0.0492090772 20.2147696"></polygon>
    </defs>
    <g id="Portfolio-Light" stroke="none" stroke-width="1" fill="none" fill-rule="evenodd">
        <g id="Landing" transform="translate(-606.000000, -1059.000000)">
            <g id="About" transform="translate(155.000000, 640.000000)">
                <g id="Badges" transform="translate(419.000000, 385.000000)">
                    <g id="Badge" transform="translate(0.000000, 26.000000)">
                        <g id="Group-2" transform="translate(32.028011, 7.427666)">
                            <g id="Leave" transform="translate(126.571429, 0.000000)">
                                <path d="M69.2829132,39.3065108 C69.2829132,39.3065108 81.2983915,37.3115783 81.8039216,25.9538888 C81.8039216,25.9538888 69.6081669,26.7321383 69.2829132,39.3065108" id="Fill-1" fill="#D6BD96"></path>
                                <path d="M65.1092437,61.8390606 C65.1092437,61.8390606 81.7002398,60.129414 83.4733894,43.4792052 C83.4733894,43.4792052 66.7551219,43.3799061 65.1092437,61.8390606" id="Fill-3" fill="#D6BD96"></path>
                                <path d="M58.4313725,82.5264777 C58.4313725,82.5264777 76.6101169,85.276542 82.6386555,69.0386354 C82.6386555,69.0386354 64.7703405,64.4369009 58.4313725,82.5264777" id="Fill-6" fill="#D6BD96"></path>
                                <path d="M46.745098,103.77767 C46.745098,103.77767 65.5246094,112.25649 76.7955182,96.5981487 C76.7955182,96.5981487 58.8940835,86.2180606 46.745098,103.77767" id="Fill-8" fill="#D6BD96"></path>
                                <path d="M35.0588235,116.080314 C35.0588235,116.080314 50.4619361,130.001807 65.1092437,117.650192 C65.1092437,117.650192 51.0287897,102.084301 35.0588235,116.080314" id="Fill-10" fill="#D6BD96"></path>
                                <path d="M10.8515406,131.1048 C10.8515406,131.1048 26.120089,148.344194 44.2408964,137.587661 C44.2408964,137.587661 30.6795573,118.816788 10.8515406,131.1048" id="Fill-12" fill="#D6BD96"></path>
                                <path d="M69.2829132,33.4647387 C69.2829132,33.4647387 69.3237519,21.1433574 58.4674752,16.7739611 C58.4674752,16.7739611 57.2273944,28.8448288 69.2829132,33.4647387" id="Fill-14" fill="#D6BD96"></path>
                                <path d="M67.6134454,49.3209774 C67.6134454,49.3209774 67.6596313,34.535292 55.1340765,29.2920443 C55.1340765,29.2920443 53.7034528,43.7783639 67.6134454,49.3209774" id="Fill-16" fill="#D6BD96"></path>
                                <path d="M63.4397759,69.3499105 C63.4397759,69.3499105 63.5045009,50.2488495 46.8008077,43.4792052 C46.8008077,43.4792052 44.8906976,62.1873149 63.4397759,69.3499105" id="Fill-18" fill="#D6BD96"></path>
                                <path d="M54.1061435,92.7169991 C54.1061435,92.7169991 59.5249492,74.2633432 44.95972,62.6735995 C44.95972,62.6735995 37.8334652,80.1936064 54.1061435,92.7169991" id="Fill-20" fill="#D6BD96"></path>
                                <path d="M42.4765604,108.573238 C42.4765604,108.573238 50.5269134,90.9860014 38.2913021,76.8607604 C38.2913021,76.8607604 28.738736,93.2178144 42.4765604,108.573238" id="Fill-22" fill="#D6BD96"></path>
                                <path d="M24.9883593,123.594938 C24.9883593,123.594938 37.7081698,104.509623 25.7846865,85.2061492 C25.7846865,85.2061492 11.5126924,102.516769 24.9883593,123.594938" id="Fill-24" fill="#D6BD96"></path>
                                <path d="M2.43641318,133.609404 C2.43641318,133.609404 19.9877391,118.527572 12.1959626,96.8896935 C12.1959626,96.8896935 -6.54509165,109.864137 2.43641318,133.609404" id="Fill-26" fill="#D6BD96"></path>
                                <g id="Group-30" transform="translate(65.109244, 0.917722)">
                                    <mask id="mask-2" fill="white">
                                        <use xlink:href="#path-1"></use>
                                    </mask>
                                    <g id="Clip-29"></g>
                                    <path d="M5.08871616,20.2147696 C5.08871616,20.2147696 10.7274943,9.15256817 2.33745361,0.171520999 C2.33745361,0.171520999 -4.32584227,10.4543652 5.08871616,20.2147696" id="Fill-28" fill="#D1CABF" mask="url(#mask-2)"></path>
                                </g>
                            </g>
                            <g id="Leave" transform="translate(42.000000, 71.000000) scale(-1, 1) translate(-42.000000, -71.000000) translate(0.000000, 0.000000)">
                                <path d="M69.2829132,39.3065108 C69.2829132,39.3065108 81.2983915,37.3115783 81.8039216,25.9538888 C81.8039216,25.9538888 69.6081669,26.7321383 69.2829132,39.3065108" id="Fill-1" fill="#D6BD96"></path>
                                <path d="M65.1092437,61.8390606 C65.1092437,61.8390606 81.7002398,60.129414 83.4733894,43.4792052 C83.4733894,43.4792052 66.7551219,43.3799061 65.1092437,61.8390606" id="Fill-3" fill="#D6BD96"></path>
                                <path d="M58.4313725,82.5264777 C58.4313725,82.5264777 76.6101169,85.276542 82.6386555,69.0386354 C82.6386555,69.0386354 64.7703405,64.4369009 58.4313725,82.5264777" id="Fill-6" fill="#D6BD96"></path>
                                <path d="M46.745098,103.77767 C46.745098,103.77767 65.5246094,112.25649 76.7955182,96.5981487 C76.7955182,96.5981487 58.8940835,86.2180606 46.745098,103.77767" id="Fill-8" fill="#D6BD96"></path>
                                <path d="M35.0588235,116.080314 C35.0588235,116.080314 50.4619361,130.001807 65.1092437,117.650192 C65.1092437,117.650192 51.0287897,102.084301 35.0588235,116.080314" id="Fill-10" fill="#D6BD96"></path>
                                <path d="M10.8515406,131.1048 C10.8515406,131.1048 26.120089,148.344194 44.2408964,137.587661 C44.2408964,137.587661 30.6795573,118.816788 10.8515406,131.1048" id="Fill-12" fill="#D6BD96"></path>
                                <path d="M69.2829132,33.4647387 C69.2829132,33.4647387 69.3237519,21.1433574 58.4674752,16.7739611 C58.4674752,16.7739611 57.2273944,28.8448288 69.2829132,33.4647387" id="Fill-14" fill="#D6BD96"></path>
                                <path d="M67.6134454,49.3209774 C67.6134454,49.3209774 67.6596313,34.535292 55.1340765,29.2920443 C55.1340765,29.2920443 53.7034528,43.7783639 67.6134454,49.3209774" id="Fill-16" fill="#D6BD96"></path>
                                <path d="M63.4397759,69.3499105 C63.4397759,69.3499105 63.5045009,50.2488495 46.8008077,43.4792052 C46.8008077,43.4792052 44.8906976,62.1873149 63.4397759,69.3499105" id="Fill-18" fill="#D6BD96"></path>
                                <path d="M54.1061435,92.7169991 C54.1061435,92.7169991 59.5249492,74.2633432 44.95972,62.6735995 C44.95972,62.6735995 37.8334652,80.1936064 54.1061435,92.7169991" id="Fill-20" fill="#D6BD96"></path>
                                <path d="M42.4765604,108.573238 C42.4765604,108.573238 50.5269134,90.9860014 38.2913021,76.8607604 C38.2913021,76.8607604 28.738736,93.2178144 42.4765604,108.573238" id="Fill-22" fill="#D6BD96"></path>
                                <path d="M24.9883593,123.594938 C24.9883593,123.594938 37.7081698,104.509623 25.7846865,85.2061492 C25.7846865,85.2061492 11.5126924,102.516769 24.9883593,123.594938" id="Fill-24" fill="#D6BD96"></path>
                                <path d="M2.43641318,133.609404 C2.43641318,133.609404 19.9877391,118.527572 12.1959626,96.8896935 C12.1959626,96.8896935 -6.54509165,109.864137 2.43641318,133.609404" id="Fill-26" fill="#D6BD96"></path>
                                <g id="Group-30" transform="translate(65.109244, 0.917722)">
                                    <mask id="mask-4" fill="white">
                                        <use xlink:href="#path-3"></use>
                                    </mask>
                                    <g id="Clip-29"></g>
                                    <path d="M5.08871616,20.2147696 C5.08871616,20.2147696 10.7274943,9.15256817 2.33745361,0.171520999 C2.33745361,0.171520999 -4.32584227,10.4543652 5.08871616,20.2147696" id="Fill-28" fill="#D1CABF" mask="url(#mask-4)"></path>
                                </g>
                            </g>
                            <path d="M101.219237,29.2920443 L101.219237,50.0222554 C101.219237,51.5799887 101.286137,52.5738076 101.419938,53.003742 C101.55374,53.4336764 101.833502,53.7857188 102.259234,54.0598799 C102.684965,54.3340409 103.366126,54.4711194 104.302735,54.4711194 L104.868347,54.4711194 L104.868347,55.1627495 L91.8410249,55.1627495 L91.8410249,54.4711194 L92.4978647,54.4711194 C93.5561119,54.4711194 94.3102537,54.3465026 94.7603129,54.0972653 C95.210372,53.848028 95.5144615,53.5053318 95.6725903,53.0691665 C95.8307192,52.6330011 95.9097825,51.6173743 95.9097825,50.0222554 L95.9097825,36.881283 C95.9097825,35.7098675 95.8550464,34.9777439 95.7455725,34.68489 C95.6360987,34.3920362 95.4323588,34.1428026 95.1343466,33.9371818 C94.8363345,33.731561 94.4927134,33.6287521 94.1034731,33.6287521 C93.4831213,33.6287521 92.7289795,33.828139 91.8410249,34.2269187 L91.512605,33.5539813 L100.617134,29.2920443 L101.219237,29.2920443 Z M124.901961,29.2920443 L124.901961,29.8050611 C122.628257,30.3669395 120.803669,31.0906524 119.428141,31.9762216 C118.052614,32.8617908 116.966026,33.9366724 116.168345,35.2008987 C115.370665,36.4651251 114.752001,38.0316429 114.312334,39.9004992 C114.865058,39.5340568 115.32356,39.2958728 115.687855,39.1859401 C116.504379,38.9416451 117.327171,38.8194995 118.156256,38.8194995 C120.065664,38.8194995 121.657861,39.4943542 122.932893,40.8440837 C124.207926,42.1938133 124.845433,44.0351588 124.845433,46.3681755 C124.845433,48.0049517 124.499986,49.507343 123.809081,50.8753947 C123.118177,52.2434464 122.138364,53.3000062 120.869612,54.0451058 C119.60086,54.7902053 118.244196,55.1627495 116.799578,55.1627495 C115.22934,55.1627495 113.778463,54.7444007 112.446902,53.9076905 C111.115341,53.0709804 110.07586,51.8464703 109.328427,50.2341237 C108.580994,48.6217771 108.207283,46.8689871 108.207283,44.9757013 C108.207283,42.1907389 108.895036,39.5981977 110.270564,37.1979999 C111.646092,34.7978021 113.599438,32.8862228 116.13066,31.4632048 C118.661882,30.0401867 121.58562,29.3164738 124.901961,29.2920443 Z M113.374144,41.5875838 C113.268505,43.2937607 113.215686,44.5424656 113.215686,45.3337361 C113.215686,47.039913 113.390649,48.6904289 113.740578,50.2853334 C114.090508,51.8802379 114.569178,52.999127 115.176604,53.6420343 C115.612365,54.0994875 116.127348,54.3282107 116.721569,54.3282107 C117.328994,54.3282107 117.870386,53.9974893 118.345763,53.3360367 C118.821139,52.674584 119.058824,51.3300626 119.058824,49.3024321 C119.058824,45.8900783 118.616466,43.5348477 117.731738,42.2366696 C117.163928,41.3959447 116.398055,40.9755886 115.434098,40.9755886 C114.905902,40.9755886 114.219258,41.179585 113.374144,41.5875838 Z M96.7171206,68.5153716 C99.3721911,68.5153716 101.672715,69.4987013 103.618761,71.46539 C105.564807,73.4320788 106.537815,75.8867246 106.537815,78.8294011 C106.537815,81.8603579 105.557264,84.3763086 103.596132,86.3773286 C101.635001,88.3783486 99.2615643,89.3788436 96.4757517,89.3788436 C93.6597679,89.3788436 91.2938741,88.4028705 89.3779994,86.4508951 C87.4621247,84.4989197 86.5042017,81.9731603 86.5042017,78.8735411 C86.5042017,75.7052594 87.6104645,73.1206473 89.8230232,71.1196273 C91.7439264,69.3834482 94.0419359,68.5153716 96.7171206,68.5153716 Z M96.0172897,70.1844494 C94.271056,70.1844494 92.8702522,70.8329464 91.8148363,72.1299599 C90.5003637,73.7440212 89.8431373,76.1074327 89.8431373,79.2202651 C89.8431373,82.4099577 90.5243501,84.8646391 91.8867961,86.5843829 C92.9326174,87.891004 94.3142321,88.5443047 96.0316816,88.5443047 C97.8642675,88.5443047 99.3778072,87.8285561 100.572346,86.3970375 C101.766885,84.9655188 102.364146,82.7077884 102.364146,79.6237784 C102.364146,76.2803658 101.706919,73.7872549 100.392447,72.1443711 C99.3370307,70.8377501 97.8786596,70.1844494 96.0172897,70.1844494 Z M119.893557,83.8851541 C119.52016,85.6482086 118.788514,87.0045714 117.698597,87.9542831 C116.608679,88.9039948 115.402725,89.3788436 114.080695,89.3788436 C112.506371,89.3788436 111.133903,88.7408417 109.963252,87.4648188 C108.7926,86.1887959 108.207283,84.4647297 108.207283,82.2925685 C108.207283,80.1885918 108.855673,78.4791364 110.152472,77.1641509 C111.449272,75.8491655 113.005912,75.1916826 114.822441,75.1916826 C116.184837,75.1916826 117.305013,75.539905 118.183002,76.2363603 C119.06099,76.9328156 119.499978,77.6560467 119.499978,78.4060754 C119.499978,78.7762195 119.376355,79.0757395 119.129106,79.3046443 C118.881856,79.5335492 118.536216,79.6479999 118.092176,79.6479999 C117.496758,79.6479999 117.047679,79.4629307 116.744924,79.0927866 C116.573363,78.8882333 116.459832,78.4986139 116.404326,77.9239165 C116.348821,77.3492192 116.144465,76.9108973 115.791251,76.6089376 C115.438037,76.3167187 114.948591,76.1706114 114.322898,76.1706114 C113.313716,76.1706114 112.501336,76.5310094 111.885735,77.2518162 C111.068297,78.2063982 110.659584,79.4677913 110.659584,81.0360332 C110.659584,82.633497 111.065774,84.0434325 111.878166,85.2658819 C112.690558,86.4883313 113.788027,87.0995469 115.170607,87.0995469 C116.159606,87.0995469 117.047673,86.7732406 117.834835,86.1206182 C118.389886,85.672549 118.92979,84.8592184 119.454565,83.6806018 L119.893557,83.8851541 Z M125.416108,71.0189882 L125.416108,75.5046347 L128.652215,75.5046347 L128.652215,76.5478083 L125.416108,76.5478083 L125.416108,85.3998814 C125.416108,86.2840997 125.544644,86.8801929 125.801719,87.188179 C126.058794,87.4961651 126.388955,87.6501559 126.79221,87.6501559 C127.124895,87.6501559 127.447494,87.5483233 127.760017,87.3446551 C128.07254,87.1409868 128.314489,86.8404565 128.485873,86.443055 L129.07563,86.443055 C128.722782,87.4166886 128.223761,88.1493865 127.578553,88.6411708 C126.933345,89.1329551 126.267984,89.3788436 125.58245,89.3788436 C125.118707,89.3788436 124.665052,89.2521738 124.221471,88.9988303 C123.777891,88.7454869 123.450251,88.3828635 123.238542,87.9109493 C123.026833,87.4390351 122.92098,86.7113046 122.92098,85.727736 L122.92098,76.5478083 L120.728291,76.5478083 L120.728291,76.0560265 C121.282767,75.8374557 121.849836,75.4673811 122.429515,74.9457917 C123.009194,74.4242023 123.525857,73.8057556 123.979519,73.090433 C124.211391,72.7129016 124.53399,72.0224269 124.947327,71.0189882 L125.416108,71.0189882 Z" id="16Oct" fill="#D6BD96" fill-rule="nonzero"></path>
                        </g>
                    </g>
                </g>
            </g>
        </g>
    </g>
</svg>