<?xml version="1.0" encoding="UTF-8"?>
<svg width="155px" height="117px" viewBox="0 0 155 117" version="1.1" xmlns="http://www.w3.org/2000/svg" xmlns:xlink="http://www.w3.org/1999/xlink">
    <!-- Generator: Sketch 55.2 (78181) - https://sketchapp.com -->
    <title>social-youtube-outline</title>
    <desc>Created with Sketch.</desc>
    <g id="Portfolio-Light" stroke="none" stroke-width="1" fill="none" fill-rule="evenodd">
        <g id="Landing" transform="translate(-1006.000000, -1061.000000)" fill="#D6BD96">
            <g id="About" transform="translate(155.000000, 640.000000)">
                <g id="Badges" transform="translate(419.000000, 385.000000)">
                    <g id="Badge" transform="translate(360.000000, 36.000000)">
                        <g id="social-youtube-outline" transform="translate(71.787115, 0.417012)">
                            <g id="Group" transform="translate(0.000000, 0.417012)">
                                <path d="M80.3488212,9.63568308 C100.073551,9.63568308 116.203728,9.96690969 131.125652,10.6293629 L131.337096,10.6293629 L131.54854,10.6293629 C138.526201,10.6293629 144.235196,17.253895 144.235196,25.4141141 L144.235196,25.7453407 L144.265402,26.0765673 C144.960148,36.3144806 145.292417,46.9438435 145.292417,57.6635409 L145.292417,57.6635409 C145.322624,68.3832384 144.960148,79.0126013 144.265402,89.2505145 L144.235196,89.5817412 L144.235196,89.9129678 C144.235196,94.0683561 142.815499,97.9226293 140.187549,100.783223 C137.831455,103.372813 134.75041,104.818165 131.54854,104.818165 L131.306889,104.818165 L131.065239,104.818165 C115.086094,105.570953 98.2007586,105.962402 80.8019161,105.962402 L77.6000458,105.962402 L77.6302521,105.962402 L77.6000458,105.962402 L74.3377628,105.962402 C56.8785077,105.962402 39.9931727,105.570953 24.1348527,104.848277 L23.8932021,104.848277 L23.6515515,104.848277 C20.4496812,104.848277 17.3988425,103.402924 15.0427492,100.813334 C12.4450054,97.9527408 10.9951019,94.0984676 10.9951019,89.9430793 L10.9951019,89.6118527 L10.9648955,89.2806261 C10.2399438,79.0126013 9.9076742,68.3832384 9.96808685,57.7538755 L9.96808685,57.723764 L9.96808685,57.6936525 C9.93788052,47.0642896 10.2701501,36.4650382 10.9648955,26.1970134 L10.9951019,25.8657868 L10.9951019,25.5345602 C10.9951019,17.3442295 16.6738907,10.6895859 23.6515515,10.6895859 L23.8629958,10.6895859 L24.07444,10.6895859 C39.0265703,9.9970212 55.1567472,9.6959061 74.8814766,9.6959061 L77.6000458,9.6959061 L80.3488212,9.6959061 L80.3488212,9.63568308 Z M80.3488212,-2.84217094e-14 L77.6302521,-2.84217094e-14 L74.911683,-2.84217094e-14 C57.5128405,-2.84217094e-14 40.4160612,0.240892077 23.6817578,0.993679818 C11.3575777,0.993679818 1.35928457,11.9241578 1.35928457,25.4743371 C0.604126475,36.2542576 0.271856914,46.973955 0.302063238,57.723764 C0.271856914,68.4735729 0.573920152,79.1932703 1.32907825,89.9430793 C1.32907825,103.493259 11.3273714,114.514071 23.6515515,114.514071 C40.2046169,115.29697 57.0899519,115.658308 74.3377628,115.658308 L77.6302521,115.658308 L80.8623287,115.658308 C98.1101396,115.658308 114.995475,115.29697 131.578746,114.514071 C143.933133,114.514071 153.931426,103.493259 153.931426,89.9430793 C154.656378,79.1932703 154.988647,68.4434614 154.958441,57.6936525 C154.988647,46.9438435 154.656378,36.2241461 153.931426,25.4442256 C153.931426,11.8940463 143.933133,1.02379133 131.578746,1.02379133 C114.844443,0.240892077 97.7778701,-2.84217094e-14 80.3488212,-2.84217094e-14 L80.3488212,-2.84217094e-14 L80.3488212,-2.84217094e-14 Z" id="Shape"></path>
                                <polygon id="Shape" points="62.8291535 87.2631549 62.8291535 28.12415 106.628323 57.6936525"></polygon>
                            </g>
                        </g>
                    </g>
                </g>
            </g>
        </g>
    </g>
</svg>