<?xml version="1.0" encoding="UTF-8"?>
<svg width="191px" height="167px" viewBox="0 0 191 167" version="1.1" xmlns="http://www.w3.org/2000/svg" xmlns:xlink="http://www.w3.org/1999/xlink">
    <!-- Generator: Sketch 55.2 (78181) - https://sketchapp.com -->
    <title>Group 4</title>
    <desc>Created with Sketch.</desc>
    <g id="Portfolio-Light" stroke="none" stroke-width="1" fill="none" fill-rule="evenodd">
        <g id="Landing" transform="translate(-1342.000000, -1025.000000)" fill="#D6BD96">
            <g id="About" transform="translate(155.000000, 640.000000)">
                <g id="Badges" transform="translate(419.000000, 385.000000)">
                    <g id="Badge" transform="translate(719.000000, 0.000000)">
                        <g id="Group-4" transform="translate(49.249300, 0.000000)">
                            <g id="load-d">
                                <g id="Group">
                                    <path d="M182.389356,75.5643875 L142.739496,75.5643875 C138.378011,75.5643875 134.809524,79.1126283 134.809524,83.4493671 C134.809524,87.7861059 138.378011,91.3343467 142.739496,91.3343467 L182.389356,91.3343467 C186.75084,91.3343467 190.319328,87.7861059 190.319328,83.4493671 C190.319328,79.1126283 186.75084,75.5643875 182.389356,75.5643875 L182.389356,75.5643875 Z" id="Shape"></path>
                                    <path d="M55.5098039,83.4493671 C55.5098039,79.1126283 51.9413165,75.5643875 47.5798319,75.5643875 L7.92997199,75.5643875 C3.56848739,75.5643875 0,79.1126283 0,83.4493671 C0,87.7861059 3.56848739,91.3343467 7.92997199,91.3343467 L47.5798319,91.3343467 C51.9413165,91.3343467 55.5098039,87.7861059 55.5098039,83.4493671 L55.5098039,83.4493671 Z" id="Shape"></path>
                                    <path d="M129.506355,63.7369182 C131.687097,67.5315646 136.544205,68.8128738 140.360504,66.6445044 L174.707195,46.9320555 C178.523494,44.7636861 179.812115,39.9341361 177.631373,36.1394897 C175.45063,32.3448433 170.593522,31.0635341 166.777223,33.2319035 L132.430532,52.9443524 C128.614233,55.1620029 127.325613,59.9422718 129.506355,63.7369182 L129.506355,63.7369182 Z" id="Shape"></path>
                                    <path d="M60.8129727,103.161816 C58.6322304,99.3671696 53.7751225,98.0858604 49.9588235,100.25423 L15.6121324,119.966679 C11.7958333,122.135048 10.5072129,126.964598 12.6879552,130.759244 C14.8686975,134.553891 19.7258053,135.8352 23.5421043,133.666831 L57.8887955,113.954382 C61.7050945,111.736731 62.993715,106.956462 60.8129727,103.161816 L60.8129727,103.161816 Z" id="Shape"></path>
                                    <path d="M125.838743,120.45949 C123.658001,116.664844 118.800893,115.383534 114.984594,117.551904 C111.168295,119.720273 109.879674,124.549823 112.060417,128.34447 L131.885347,162.496287 C134.066089,166.290934 138.923197,167.572243 142.739496,165.403873 C146.555795,163.235504 147.844415,158.405954 145.663673,154.611308 L125.838743,120.45949 L125.838743,120.45949 Z" id="Shape"></path>
                                    <path d="M58.4339811,4.40244693 C56.2532388,0.607800508 51.396131,-0.673508671 47.5798319,1.49486071 C43.7635329,3.66323009 42.4749125,8.49278008 44.6556548,12.2874265 L64.4805847,46.4392442 C66.661327,50.2338907 71.5184349,51.5151998 75.3347339,49.3468305 C79.1510329,47.1784611 80.4396534,42.3489111 78.2589111,38.5542647 L58.4339811,4.40244693 L58.4339811,4.40244693 Z" id="Shape"></path>
                                    <path d="M114.984594,49.2975493 C118.800893,51.4659187 123.608438,50.1846095 125.838743,46.3899631 L145.663673,12.2381454 C147.844415,8.44349895 146.555795,3.66323009 142.739496,1.44557959 C138.923197,-0.722789794 134.115651,0.558519386 131.885347,4.3531658 L112.060417,38.5049836 C109.879674,42.29963 111.168295,47.12918 114.984594,49.2975493 L114.984594,49.2975493 Z" id="Shape"></path>
                                    <path d="M75.3347339,117.601185 C71.5184349,115.432815 66.7108894,116.714125 64.4805847,120.508771 L44.6556548,154.660589 C42.4749125,158.455235 43.7635329,163.235504 47.5798319,165.453155 C51.396131,167.621524 56.2036765,166.340215 58.4339811,162.545568 L78.2589111,128.393751 C80.4396534,124.599104 79.1510329,119.769554 75.3347339,117.601185 L75.3347339,117.601185 Z" id="Shape"></path>
                                    <path d="M174.657633,119.966679 L140.310942,100.25423 C136.494643,98.0858604 131.687097,99.3671696 129.456793,103.161816 C127.27605,106.956462 128.564671,111.736731 132.38097,113.954382 L166.727661,133.666831 C170.54396,135.8352 175.351506,134.553891 177.58181,130.759244 C179.762553,126.964598 178.473932,122.184329 174.657633,119.966679 L174.657633,119.966679 Z" id="Shape"></path>
                                    <path d="M15.6616947,46.9320555 L50.0083859,66.6445044 C53.8246849,68.8128738 58.6322304,67.5315646 60.862535,63.7369182 C63.0928396,59.9422718 61.7546569,55.1620029 57.9383578,52.9443524 L23.5916667,33.2319035 C19.7753676,31.0635341 14.9678221,32.3448433 12.7375175,36.1394897 C10.5567752,39.9341361 11.8453957,44.714405 15.6616947,46.9320555 L15.6616947,46.9320555 Z" id="Shape"></path>
                                </g>
                            </g>
                            <g id="image" transform="translate(70.952381, 62.587025)">
                                <g id="Group">
                                    <path d="M36.3109244,17.3852848 C39.1747324,17.3852848 41.4981993,15.0491372 41.4981993,12.1696994 C41.4981993,9.29026157 39.1747324,6.95411392 36.3109244,6.95411392 C33.4471163,6.95411392 31.1236495,9.29026157 31.1236495,12.1696994 C31.1236495,15.0491372 33.4471163,17.3852848 36.3109244,17.3852848 L36.3109244,17.3852848 Z" id="Shape"></path>
                                    <path d="M45.3886555,0 L3.02591036,0 C1.34004602,0 0,1.37995698 0,3.07502225 L0,38.6496613 C0,40.3447266 1.34004602,41.7246835 3.02591036,41.7246835 L45.3886555,41.7246835 C47.0745198,41.7246835 48.4145658,40.3447266 48.4145658,38.6496613 L48.4145658,3.07502225 C48.4145658,1.37995698 47.0745198,0 45.3886555,0 L45.3886555,0 Z M34.2468212,21.4816925 C33.9226165,21.1013894 33.4255027,20.8080128 32.8635479,20.8080128 C32.3124,20.8080128 31.9233543,21.068792 31.4802746,21.4273635 L29.4593988,23.1441604 C29.0379327,23.4484029 28.7029212,23.6548531 28.2166141,23.6548531 C27.7519208,23.6548531 27.3304547,23.4810003 27.0278636,23.2093552 C26.9197954,23.111563 26.7252726,22.9268443 26.5631703,22.7638573 L20.7490996,16.4399599 C20.3168267,15.940133 19.6684174,15.6250247 18.9443602,15.6250247 C18.2203031,15.6250247 17.5502801,15.9835962 17.128814,16.4725574 L3.45818327,33.0537727 L3.45818327,4.74835591 C3.5662515,4.00948131 4.13901311,3.47705696 4.87387705,3.47705696 L43.529882,3.47705696 C44.2755527,3.47705696 44.8807348,4.03121292 44.9239621,4.78095332 L44.9563826,33.0755044 L34.2468212,21.4816925 L34.2468212,21.4816925 Z" id="Shape"></path>
                                </g>
                            </g>
                        </g>
                    </g>
                </g>
            </g>
        </g>
    </g>
</svg>